<svg width="40" height="40" viewBox="0 0 40 40" fill="none"><circle cx="20" cy="20" r="20" fill="#181717"/><path fill-rule="evenodd" clip-rule="evenodd" d="M20 10C14.477 10 10 14.477 10 20C10 24.418 13.065 28.065 17.062 29.25C17.562 29.337 17.75 29.037 17.75 28.775C17.75 28.537 17.742 27.887 17.738 27.025C14.953 27.637 14.422 25.92 14.422 25.92C13.953 24.797 13.25 24.5 13.25 24.5C12.25 23.875 13.328 23.89 13.328 23.89C14.422 23.975 14.953 25.025 14.953 25.025C15.953 26.797 17.562 26.25 18.25 25.975C18.328 25.25 18.625 24.75 18.953 24.5C16.953 24.25 14.828 23.5 14.828 20.75C14.828 19.953 15.125 19.25 15.625 18.75C15.547 18.5 15.297 17.75 15.703 16.75C15.703 16.75 16.453 16.5 17.75 17.5C18.453 17.297 19.203 17.203 19.953 17.203C20.703 17.203 21.453 17.297 22.156 17.5C23.453 16.5 24.203 16.75 24.203 16.75C24.609 17.75 24.359 18.5 24.281 18.75C24.781 19.25 25.078 19.953 25.078 20.75C25.078 23.516 22.953 24.25 20.953 24.5C21.359 24.797 21.75 25.5 21.75 26.5C21.75 28.037 21.734 28.5 21.734 28.775C21.734 29.037 21.922 29.343 22.422 29.25C26.418 28.065 29.484 24.418 29.484 20C29.484 14.477 25.023 10 20 10Z" fill=\"white\"/></svg>